<mxfile host="Electron" modified="2024-05-15T08:31:51.797Z" agent="Mozilla/5.0 (Macintosh; Intel Mac OS X 10_15_7) AppleWebKit/537.36 (KHTML, like Gecko) draw.io/24.4.0 Chrome/120.0.6099.109 Electron/28.1.0 Safari/537.36" etag="fOfpctSkAMQIEuRmFgXc" version="24.4.0" type="device">
  <diagram name="Page-1" id="8Qw_1hSMklgCle8Wcz-8">
    <mxGraphModel dx="1368" dy="991" grid="1" gridSize="10" guides="1" tooltips="1" connect="1" arrows="1" fold="1" page="1" pageScale="1" pageWidth="1169" pageHeight="827" math="1" shadow="0">
      <root>
        <mxCell id="0" />
        <mxCell id="1" parent="0" />
        <mxCell id="gO14tqI6qxzoFVm-JLHP-20" value="" style="rounded=0;whiteSpace=wrap;html=1;fillColor=#e1d5e7;strokeColor=#9673a6;sketch=1;curveFitting=1;jiggle=2;" vertex="1" parent="1">
          <mxGeometry x="320" y="470" width="390" height="300" as="geometry" />
        </mxCell>
        <mxCell id="LVMC560kpPJ9mfJXyLy--1" value="&lt;b style=&quot;font-size: 18px;&quot;&gt;custom pytorch&lt;br&gt;OSEM update&lt;br&gt;&amp;nbsp;layer&lt;br&gt;&lt;/b&gt;" style="rounded=1;whiteSpace=wrap;html=1;fillColor=#e1d5e7;strokeColor=#9673a6;shadow=0;glass=0;sketch=1;curveFitting=1;jiggle=2;arcSize=8;" parent="1" vertex="1">
          <mxGeometry x="397.5" y="20" width="250" height="120" as="geometry" />
        </mxCell>
        <mxCell id="LVMC560kpPJ9mfJXyLy--16" value="&lt;div&gt;&lt;b style=&quot;background-color: initial;&quot;&gt;pytorch input image tensor&lt;br&gt;(mini batch)&lt;br&gt;x&lt;sub&gt;in&lt;/sub&gt;&lt;/b&gt;&lt;/div&gt;&lt;div&gt;&lt;b style=&quot;background-color: initial;&quot;&gt;shape (1,1,n&lt;sub&gt;z&lt;/sub&gt;,n&lt;sub&gt;y&lt;/sub&gt;,n&lt;sub&gt;x&lt;/sub&gt;)&lt;/b&gt;&lt;/div&gt;" style="text;html=1;align=center;verticalAlign=middle;resizable=0;points=[];autosize=1;strokeColor=#666666;fillColor=#f5f5f5;fontColor=#333333;sketch=1;curveFitting=1;jiggle=2;" parent="1" vertex="1">
          <mxGeometry x="167.5" y="40" width="180" height="80" as="geometry" />
        </mxCell>
        <mxCell id="LVMC560kpPJ9mfJXyLy--21" value="&lt;div&gt;&lt;b&gt;sirf.STIR (listmode) objective function&lt;/b&gt;&lt;font color=&quot;#000000&quot;&gt;&lt;b&gt;&lt;br&gt;&lt;/b&gt;&lt;/font&gt;&lt;/div&gt;&lt;div&gt;&lt;b&gt;including&lt;/b&gt;&lt;/div&gt;&lt;font color=&quot;#000000&quot;&gt;&lt;b&gt;sirf.STIR acquired (listmode) PET data&amp;nbsp;&lt;br&gt;sirf.STIR acquisition model&lt;/b&gt;&lt;/font&gt;" style="rounded=1;whiteSpace=wrap;html=1;fillColor=#d5e8d4;strokeColor=#82b366;sketch=1;curveFitting=1;jiggle=2;" parent="1" vertex="1">
          <mxGeometry x="405" y="180" width="235" height="100" as="geometry" />
        </mxCell>
        <mxCell id="LVMC560kpPJ9mfJXyLy--36" value="&lt;div&gt;&lt;b&gt;pytorch output image tensor&amp;nbsp;&lt;/b&gt;&lt;/div&gt;&lt;div&gt;&lt;b&gt;(mini batch)&lt;/b&gt;&lt;/div&gt;&lt;b&gt;x&lt;sub&gt;out&lt;/sub&gt; = x&lt;sub&gt;in&lt;/sub&gt; + (x&lt;sub&gt;in&lt;/sub&gt;/s) (`\nabla_x`&lt;/b&gt;&lt;b style=&quot;background-color: initial;&quot;&gt;&amp;nbsp;logL)(x&lt;sub&gt;in&lt;/sub&gt;)&lt;/b&gt;&lt;div&gt;&lt;b style=&quot;background-color: initial;&quot;&gt;shape (1,1,n&lt;sub&gt;z&lt;/sub&gt;,n&lt;sub&gt;y&lt;/sub&gt;,n&lt;sub&gt;x&lt;/sub&gt;)&lt;/b&gt;&lt;b style=&quot;background-color: initial;&quot;&gt;&lt;br&gt;&lt;/b&gt;&lt;/div&gt;" style="text;html=1;align=center;verticalAlign=middle;resizable=0;points=[];autosize=1;fillColor=#f5f5f5;fontColor=#333333;strokeColor=#666666;sketch=1;curveFitting=1;jiggle=2;" parent="1" vertex="1">
          <mxGeometry x="682.5" y="35" width="240" height="80" as="geometry" />
        </mxCell>
        <mxCell id="gO14tqI6qxzoFVm-JLHP-1" value="" style="endArrow=classic;html=1;rounded=0;exitX=0.5;exitY=0;exitDx=0;exitDy=0;entryX=0.5;entryY=1;entryDx=0;entryDy=0;" edge="1" parent="1" source="LVMC560kpPJ9mfJXyLy--21" target="LVMC560kpPJ9mfJXyLy--1">
          <mxGeometry width="50" height="50" relative="1" as="geometry">
            <mxPoint x="597.5" y="130" as="sourcePoint" />
            <mxPoint x="647.5" y="80" as="targetPoint" />
          </mxGeometry>
        </mxCell>
        <mxCell id="gO14tqI6qxzoFVm-JLHP-2" value="" style="endArrow=classic;html=1;rounded=0;exitX=0.989;exitY=0.506;exitDx=0;exitDy=0;exitPerimeter=0;entryX=0;entryY=0.5;entryDx=0;entryDy=0;" edge="1" parent="1" source="LVMC560kpPJ9mfJXyLy--16" target="LVMC560kpPJ9mfJXyLy--1">
          <mxGeometry width="50" height="50" relative="1" as="geometry">
            <mxPoint x="487.5" y="120" as="sourcePoint" />
            <mxPoint x="537.5" y="70" as="targetPoint" />
          </mxGeometry>
        </mxCell>
        <mxCell id="gO14tqI6qxzoFVm-JLHP-3" value="" style="endArrow=classic;html=1;rounded=0;exitX=1;exitY=0.5;exitDx=0;exitDy=0;entryX=-0.011;entryY=0.569;entryDx=0;entryDy=0;entryPerimeter=0;" edge="1" parent="1" source="LVMC560kpPJ9mfJXyLy--1" target="LVMC560kpPJ9mfJXyLy--36">
          <mxGeometry width="50" height="50" relative="1" as="geometry">
            <mxPoint x="487.5" y="120" as="sourcePoint" />
            <mxPoint x="697.5" y="70" as="targetPoint" />
          </mxGeometry>
        </mxCell>
        <mxCell id="gO14tqI6qxzoFVm-JLHP-5" value="&lt;b style=&quot;font-size: 14px;&quot;&gt;custom pytorch&lt;br&gt;Poisson logL &lt;br&gt;&amp;nbsp;layer&lt;br&gt;&lt;/b&gt;" style="rounded=1;whiteSpace=wrap;html=1;fillColor=#dae8fc;strokeColor=#6c8ebf;shadow=0;glass=0;sketch=1;curveFitting=1;jiggle=2;arcSize=8;" vertex="1" parent="1">
          <mxGeometry x="372.5" y="500" width="187.5" height="90" as="geometry" />
        </mxCell>
        <mxCell id="gO14tqI6qxzoFVm-JLHP-6" value="&lt;b style=&quot;&quot;&gt;pointwise multiplication&lt;br&gt;&amp;nbsp;with inverse sensitivity image&lt;br&gt;&lt;/b&gt;" style="rounded=1;whiteSpace=wrap;html=1;fillColor=#fff2cc;strokeColor=#d6b656;shadow=0;glass=0;sketch=1;curveFitting=1;jiggle=2;arcSize=8;" vertex="1" parent="1">
          <mxGeometry x="372.5" y="620" width="187.5" height="60" as="geometry" />
        </mxCell>
        <mxCell id="gO14tqI6qxzoFVm-JLHP-7" value="&lt;b style=&quot;&quot;&gt;&lt;font style=&quot;font-size: 12px;&quot;&gt;pointwise multiplication&lt;/font&gt;&lt;/b&gt;" style="rounded=1;whiteSpace=wrap;html=1;fillColor=#fff2cc;strokeColor=#d6b656;shadow=0;glass=0;sketch=1;curveFitting=1;jiggle=2;arcSize=8;rotation=-90;" vertex="1" parent="1">
          <mxGeometry x="511" y="581" width="189.5" height="40" as="geometry" />
        </mxCell>
        <mxCell id="gO14tqI6qxzoFVm-JLHP-8" value="&lt;b style=&quot;&quot;&gt;&lt;font style=&quot;font-size: 12px;&quot;&gt;pointwise addition&lt;/font&gt;&lt;/b&gt;" style="rounded=1;whiteSpace=wrap;html=1;fillColor=#fff2cc;strokeColor=#d6b656;shadow=0;glass=0;sketch=1;curveFitting=1;jiggle=2;arcSize=8;rotation=-90;" vertex="1" parent="1">
          <mxGeometry x="581.5" y="631.5" width="201.75" height="40" as="geometry" />
        </mxCell>
        <mxCell id="gO14tqI6qxzoFVm-JLHP-9" value="&lt;div&gt;&lt;b style=&quot;background-color: initial;&quot;&gt;pytorch input image tensor&lt;br&gt;(mini batch)&lt;br&gt;x&lt;sub&gt;in&lt;/sub&gt;&lt;/b&gt;&lt;/div&gt;&lt;div&gt;&lt;b style=&quot;background-color: initial;&quot;&gt;shape (1,1,n&lt;sub&gt;z&lt;/sub&gt;,n&lt;sub&gt;y&lt;/sub&gt;,n&lt;sub&gt;x&lt;/sub&gt;)&lt;/b&gt;&lt;/div&gt;" style="text;html=1;align=center;verticalAlign=middle;resizable=0;points=[];autosize=1;strokeColor=#666666;fillColor=#f5f5f5;fontColor=#333333;sketch=1;curveFitting=1;jiggle=2;" vertex="1" parent="1">
          <mxGeometry x="120" y="560" width="180" height="80" as="geometry" />
        </mxCell>
        <mxCell id="gO14tqI6qxzoFVm-JLHP-10" value="&lt;div&gt;&lt;b&gt;pytorch output image tensor&amp;nbsp;&lt;/b&gt;&lt;/div&gt;&lt;div&gt;&lt;b&gt;(mini batch)&lt;/b&gt;&lt;/div&gt;&lt;b&gt;x&lt;sub&gt;out&lt;/sub&gt; = x&lt;sub&gt;in&lt;/sub&gt; + (x&lt;sub&gt;in&lt;/sub&gt;/s) (`\nabla_x`&lt;/b&gt;&lt;b style=&quot;background-color: initial;&quot;&gt;&amp;nbsp;logL)(x&lt;sub&gt;in&lt;/sub&gt;)&lt;/b&gt;&lt;div&gt;&lt;b style=&quot;background-color: initial;&quot;&gt;shape (1,1,n&lt;sub&gt;z&lt;/sub&gt;,n&lt;sub&gt;y&lt;/sub&gt;,n&lt;sub&gt;x&lt;/sub&gt;)&lt;/b&gt;&lt;b style=&quot;background-color: initial;&quot;&gt;&lt;br&gt;&lt;/b&gt;&lt;/div&gt;" style="text;html=1;align=center;verticalAlign=middle;resizable=0;points=[];autosize=1;fillColor=#f5f5f5;fontColor=#333333;strokeColor=#666666;sketch=1;curveFitting=1;jiggle=2;" vertex="1" parent="1">
          <mxGeometry x="740" y="560" width="240" height="80" as="geometry" />
        </mxCell>
        <mxCell id="gO14tqI6qxzoFVm-JLHP-11" value="" style="strokeWidth=2;html=1;shape=mxgraph.flowchart.annotation_2;align=left;labelPosition=right;pointerEvents=1;" vertex="1" parent="1">
          <mxGeometry x="300" y="540" width="70" height="120" as="geometry" />
        </mxCell>
        <mxCell id="gO14tqI6qxzoFVm-JLHP-12" value="" style="endArrow=classic;html=1;rounded=0;exitX=0.995;exitY=0.589;exitDx=0;exitDy=0;exitPerimeter=0;entryX=0.75;entryY=0;entryDx=0;entryDy=0;" edge="1" parent="1" source="gO14tqI6qxzoFVm-JLHP-5" target="gO14tqI6qxzoFVm-JLHP-7">
          <mxGeometry width="50" height="50" relative="1" as="geometry">
            <mxPoint x="470" y="510" as="sourcePoint" />
            <mxPoint x="520" y="460" as="targetPoint" />
          </mxGeometry>
        </mxCell>
        <mxCell id="gO14tqI6qxzoFVm-JLHP-13" value="" style="endArrow=classic;html=1;rounded=0;exitX=1;exitY=0.5;exitDx=0;exitDy=0;entryX=0.25;entryY=0;entryDx=0;entryDy=0;" edge="1" parent="1" source="gO14tqI6qxzoFVm-JLHP-6" target="gO14tqI6qxzoFVm-JLHP-7">
          <mxGeometry width="50" height="50" relative="1" as="geometry">
            <mxPoint x="470" y="510" as="sourcePoint" />
            <mxPoint x="520" y="460" as="targetPoint" />
          </mxGeometry>
        </mxCell>
        <mxCell id="gO14tqI6qxzoFVm-JLHP-14" value="" style="endArrow=classic;html=1;rounded=0;exitX=0.5;exitY=1;exitDx=0;exitDy=0;entryX=0.75;entryY=0;entryDx=0;entryDy=0;" edge="1" parent="1" source="gO14tqI6qxzoFVm-JLHP-7" target="gO14tqI6qxzoFVm-JLHP-8">
          <mxGeometry width="50" height="50" relative="1" as="geometry">
            <mxPoint x="470" y="510" as="sourcePoint" />
            <mxPoint x="520" y="460" as="targetPoint" />
          </mxGeometry>
        </mxCell>
        <mxCell id="gO14tqI6qxzoFVm-JLHP-15" value="" style="strokeWidth=2;html=1;shape=mxgraph.flowchart.annotation_1;align=left;pointerEvents=1;" vertex="1" parent="1">
          <mxGeometry x="350" y="660" width="10" height="40" as="geometry" />
        </mxCell>
        <mxCell id="gO14tqI6qxzoFVm-JLHP-16" value="" style="endArrow=classic;html=1;rounded=0;exitX=1;exitY=1;exitDx=0;exitDy=0;exitPerimeter=0;entryX=0.25;entryY=0;entryDx=0;entryDy=0;" edge="1" parent="1" source="gO14tqI6qxzoFVm-JLHP-15" target="gO14tqI6qxzoFVm-JLHP-8">
          <mxGeometry width="50" height="50" relative="1" as="geometry">
            <mxPoint x="441.25" y="780" as="sourcePoint" />
            <mxPoint x="491.25" y="730" as="targetPoint" />
          </mxGeometry>
        </mxCell>
        <mxCell id="gO14tqI6qxzoFVm-JLHP-17" value="" style="endArrow=classic;html=1;rounded=0;exitX=0.75;exitY=1;exitDx=0;exitDy=0;entryX=-0.004;entryY=0.5;entryDx=0;entryDy=0;entryPerimeter=0;" edge="1" parent="1" source="gO14tqI6qxzoFVm-JLHP-8" target="gO14tqI6qxzoFVm-JLHP-10">
          <mxGeometry width="50" height="50" relative="1" as="geometry">
            <mxPoint x="470" y="510" as="sourcePoint" />
            <mxPoint x="520" y="460" as="targetPoint" />
          </mxGeometry>
        </mxCell>
        <mxCell id="gO14tqI6qxzoFVm-JLHP-19" value="&lt;div&gt;&lt;b&gt;sirf.STIR (listmode) objective function&lt;/b&gt;&lt;/div&gt;" style="rounded=1;whiteSpace=wrap;html=1;fillColor=#d5e8d4;strokeColor=#82b366;sketch=1;curveFitting=1;jiggle=2;" vertex="1" parent="1">
          <mxGeometry x="348" y="414" width="235" height="30" as="geometry" />
        </mxCell>
        <mxCell id="gO14tqI6qxzoFVm-JLHP-23" value="" style="endArrow=classic;html=1;rounded=0;exitX=0.5;exitY=1;exitDx=0;exitDy=0;entryX=0.5;entryY=0;entryDx=0;entryDy=0;" edge="1" parent="1" source="gO14tqI6qxzoFVm-JLHP-19" target="gO14tqI6qxzoFVm-JLHP-5">
          <mxGeometry width="50" height="50" relative="1" as="geometry">
            <mxPoint x="490" y="590" as="sourcePoint" />
            <mxPoint x="540" y="540" as="targetPoint" />
          </mxGeometry>
        </mxCell>
        <mxCell id="gO14tqI6qxzoFVm-JLHP-24" value="&lt;b&gt;&lt;font style=&quot;font-size: 16px;&quot;&gt;Decomposition of the OSEM update layer into feed forward network using custom Poisson gradient logL layer &lt;br&gt;and basic pytorch tensor operations&lt;/font&gt;&lt;/b&gt;" style="text;html=1;align=center;verticalAlign=middle;resizable=0;points=[];autosize=1;strokeColor=none;fillColor=none;" vertex="1" parent="1">
          <mxGeometry x="92.5" y="340" width="860" height="50" as="geometry" />
        </mxCell>
      </root>
    </mxGraphModel>
  </diagram>
</mxfile>
